<?xml version="1.0" encoding="UTF-8"?>
<!-- Generator: visioncortex VTracer -->
<svg id="svg" version="1.1" xmlns="http://www.w3.org/2000/svg" style="display: block;" viewBox="0 0 234 258"><path d="M0 0 C0.92255585 -0.00175232 1.84511169 -0.00350464 2.79562378 -0.00531006 C5.86002463 -0.00972571 8.92436804 -0.00678725 11.98876953 -0.00341797 C14.13135794 -0.00409212 16.27394628 -0.00506308 18.41653442 -0.00631714 C22.92418134 -0.00779456 27.4318085 -0.00564193 31.93945312 -0.00097656 C37.65779171 0.00465905 43.37608272 0.00148174 49.09441948 -0.00454903 C53.53199607 -0.00820662 57.96956187 -0.00699148 62.40713882 -0.00442123 C64.511008 -0.00376299 66.61487823 -0.0045409 68.71874619 -0.00690079 C74.53320627 -0.01198182 80.34597218 0.01171466 86.159935 0.0908432 C88.09556257 0.11714926 90.03127448 0.13772063 91.96701813 0.15329742 C94.86106037 0.18422386 97.75232127 0.24976069 100.64550781 0.32519531 C101.95012372 0.33300427 101.95012372 0.33300427 103.2810955 0.34097099 C107.68776805 0.49541759 109.47583296 0.71472969 113.03463745 3.54855347 C115.90961469 7.33044383 115.84724248 9.42519873 115.99658203 14.12939453 C115.55908203 16.62939453 115.55908203 16.62939453 114.99658203 18.12939453 C115.96982422 17.96181641 116.94306641 17.79423828 117.94580078 17.62158203 C127.68455792 16.24606519 139.43070793 16.40889249 148.01611328 21.55126953 C153.56656908 25.97411794 157.58329503 32.14540126 158.99658203 39.12939453 C160.47473706 54.75267194 155.75821277 68.97732763 146.18408203 81.31689453 C144.8087875 82.93870412 143.41286938 84.54325723 141.99658203 86.12939453 C141.31853516 86.90154297 140.64048828 87.67369141 139.94189453 88.46923828 C131.77470272 97.21980094 121.76533259 102.79568038 110.65283203 107.02392578 C104.61931282 109.53493451 102.44652354 111.48518493 99.80908203 117.56689453 C94.62287638 128.71048343 86.9642624 138.18375728 75.99658203 144.12939453 C73.70751953 144.80517578 73.70751953 144.80517578 71.99658203 145.12939453 C69.71628017 163.12529027 72.19304119 178.83890311 83.37158203 193.39501953 C86.17804502 196.31841848 88.49014829 197.64833638 92.18408203 199.25439453 C97.69823466 201.66131196 97.69823466 201.66131196 99.1496582 203.93847656 C100.08456342 206.3569947 100.22681922 208.09184269 100.19189453 210.67626953 C100.18222656 211.94277344 100.18222656 211.94277344 100.17236328 213.23486328 C100.14722656 214.54390625 100.14722656 214.54390625 100.12158203 215.87939453 C100.11255859 216.76755859 100.10353516 217.65572266 100.09423828 218.57080078 C100.0707278 220.75727511 100.03786702 222.94319547 99.99658203 225.12939453 C101.26630859 225.10748047 102.53603516 225.08556641 103.84423828 225.06298828 C106.55517947 225.01620046 107.90391728 225.0890022 110.43408203 226.19189453 C112.78917909 229.11221488 112.9326962 231.42401649 112.99658203 235.12939453 C111.65095804 238.07695185 110.91103659 239.67216725 107.99658203 241.12939453 C106.42420091 241.23034501 104.8476178 241.26881909 103.27201843 241.27656555 C102.27521057 241.28372086 101.27840271 241.29087616 100.25138855 241.29824829 C98.60485039 241.30228165 98.60485039 241.30228165 96.92504883 241.30639648 C95.77211334 241.31296768 94.61917786 241.31953888 93.43130493 241.3263092 C89.60280295 241.34607594 85.77434024 241.35771172 81.94580078 241.36767578 C79.98860076 241.37378907 79.98860076 241.37378907 77.99186134 241.38002586 C71.79980628 241.39907822 65.60776314 241.41330902 59.4156844 241.42163783 C52.26834071 241.43141027 45.12130672 241.45772932 37.97407216 241.49813873 C32.4495806 241.52830128 26.9251778 241.54310683 21.4006055 241.54641885 C18.10105012 241.5487693 14.8019013 241.5596995 11.50241661 241.58288002 C7.8201245 241.60714383 4.13864587 241.60632937 0.45629883 241.59936523 C-1.18113029 241.61858032 -1.18113029 241.61858032 -2.85163879 241.63818359 C-10.22106694 241.58727976 -10.22106694 241.58727976 -14.15715027 239.28361511 C-16.55059955 236.49094442 -17.00341797 234.7986355 -17.00341797 231.12939453 C-16.19091797 228.37939453 -16.19091797 228.37939453 -14.00341797 226.12939453 C-10.71046597 225.10762647 -7.4199462 224.55886431 -4.00341797 224.12939453 C-4.01244141 222.89962891 -4.02146484 221.66986328 -4.03076172 220.40283203 C-3.89175747 207.66951854 -3.89175747 207.66951854 -1.62451172 203.73876953 C0.18021166 202.20455279 1.86187772 201.1499703 3.99658203 200.12939453 C13.55095017 195.01098303 18.87115541 188.16339922 22.99658203 178.12939453 C23.31755859 177.35595703 23.63853516 176.58251953 23.96923828 175.78564453 C26.96377988 166.98308503 28.62623118 155.18410215 25.99658203 146.12939453 C22.98768071 141.8502259 18.25978562 139.62229917 13.76171875 137.17578125 C8.04558869 133.78721508 3.76592683 128.35443554 1.37548828 122.22314453 C-2.10089809 113.24678855 -2.10089809 113.24678855 -9.56591797 107.57080078 C-13.86897571 105.81770318 -18.27493534 104.38374593 -22.69238281 102.94873047 C-36.0056324 98.22875734 -48.84571632 85.62547543 -55.50341797 73.36767578 C-56.77988435 70.64378771 -57.94255872 67.9446076 -59.00341797 65.12939453 C-59.2630835 64.46633301 -59.52274902 63.80327148 -59.7902832 63.12011719 C-61.84336379 57.53676178 -62.51786081 52.56120664 -62.44091797 46.62939453 C-62.43189453 45.79569336 -62.42287109 44.96199219 -62.41357422 44.10302734 C-62.17358696 35.60681182 -60.47769863 30.20911973 -54.25341797 24.25439453 C-46.67906796 17.66661953 -38.53413398 17.72900912 -29.00341797 17.94189453 C-27.84712891 17.95542969 -26.69083984 17.96896484 -25.49951172 17.98291016 C-22.66698793 18.01802409 -19.8354549 18.06720453 -17.00341797 18.12939453 C-17.03024658 17.3773877 -17.0570752 16.62538086 -17.0847168 15.85058594 C-17.1055835 14.8623584 -17.1264502 13.87413086 -17.14794922 12.85595703 C-17.17477783 11.8770752 -17.20160645 10.89819336 -17.22924805 9.88964844 C-16.87187047 5.52152855 -15.2362227 3.98629174 -12.00341797 1.12939453 C-8.00546128 -0.2032577 -4.16808957 -0.00966907 0 0 Z M0.99658203 17.12939453 C0.26100492 20.32130559 -0.1008284 23.00557376 0.26269531 26.26000977 C0.34693253 27.04476685 0.43116974 27.82952393 0.51795959 28.63806152 C0.61660812 29.47953735 0.71525665 30.32101318 0.81689453 31.18798828 C0.91566391 32.07691772 1.01443329 32.96584717 1.11619568 33.88171387 C1.44185671 36.77794547 1.7805305 39.67243737 2.12158203 42.56689453 C2.23573456 43.55215118 2.34988708 44.53740784 2.46749878 45.55252075 C3.92583511 58.095029 5.51812044 70.6050517 7.55908203 83.06689453 C7.74422363 84.21665771 7.92936523 85.3664209 8.12011719 86.55102539 C10.72636224 101.66522984 14.95402636 118.29017483 28.16455078 127.66845703 C37.51186986 133.17066551 47.43698958 134.70943451 58.11767578 132.47705078 C67.96841704 129.55320019 75.32078081 124.44874739 80.66064453 115.59814453 C81.10150391 114.78345703 81.54236328 113.96876953 81.99658203 113.12939453 C82.43744141 112.31470703 82.87830078 111.50001953 83.33251953 110.66064453 C94.68089821 86.72588222 95.04420637 53.4627768 97.37158203 27.31689453 C97.45617676 26.37531494 97.54077148 25.43373535 97.62792969 24.46362305 C97.79765198 22.35546154 97.90518524 20.24240121 97.99658203 18.12939453 C96.09681115 16.22962365 93.30719138 17.00926811 90.77987671 17.00497437 C89.43876328 17.01036728 89.43876328 17.01036728 88.07055664 17.01586914 C87.13406784 17.01572311 86.19757904 17.01557709 85.23271179 17.01542664 C82.12142664 17.01612616 79.01020054 17.02392038 75.89892578 17.03173828 C73.7480116 17.03360232 71.597097 17.03502629 69.44618225 17.036026 C63.77276445 17.03985229 58.09937208 17.04968351 52.42596436 17.06072998 C46.64156437 17.07094173 40.8571603 17.07552311 35.07275391 17.08056641 C23.71401875 17.09130568 12.3553025 17.10838342 0.99658203 17.12939453 Z M-42.87841797 37.94189453 C-46.01265083 44.0362362 -44.81222569 49.79465235 -43.00341797 56.12939453 C-37.71944401 70.02545738 -28.0147752 81.66327529 -14.25341797 87.94189453 C-11.11047761 89.30099101 -11.11047761 89.30099101 -8.00341797 89.12939453 C-8.43993405 86.0459192 -8.87757161 82.96260986 -9.31591797 79.87939453 C-9.44981934 78.93443115 -9.5837207 77.98946777 -9.72167969 77.01586914 C-10.39866452 72.26394121 -11.09146048 67.51586113 -11.83544922 62.77392578 C-13.33039455 53.21935419 -14.53908136 43.80040526 -15.00341797 34.12939453 C-18.02449699 34.07506943 -21.04458325 34.03556527 -24.06591797 34.00439453 C-25.33725586 33.97925781 -25.33725586 33.97925781 -26.63427734 33.95361328 C-35.43884483 33.82221111 -35.43884483 33.82221111 -42.87841797 37.94189453 Z M112.99658203 34.12939453 C112.29921756 39.87237346 111.60561279 45.61579034 110.9152832 51.35961914 C110.68060466 53.30798186 110.44495153 55.25622748 110.20825195 57.2043457 C108.9173093 67.83483539 107.65892506 78.43764466 106.99658203 89.12939453 C120.58986162 83.01984491 132.50536752 74.02116166 138.37158203 59.87939453 C140.78810267 53.44934832 141.81794054 46.98154976 140.99658203 40.12939453 C139.3354135 37.22234959 138.36634939 35.58652807 135.15380859 34.5144043 C132.79945078 34.09421164 130.62227541 34.01640932 128.23095703 34.03173828 C126.89677734 34.03657227 126.89677734 34.03657227 125.53564453 34.04150391 C124.61525391 34.04988281 123.69486328 34.05826172 122.74658203 34.06689453 C121.34279297 34.07366211 121.34279297 34.07366211 119.91064453 34.08056641 C117.60589162 34.09232535 115.30126977 34.10876027 112.99658203 34.12939453 Z M43.99658203 150.12939453 C43.95919922 151.18255859 43.92181641 152.23572266 43.88330078 153.32080078 C43.21526554 169.12297132 40.71941052 182.1910848 32.99658203 196.12939453 C32.33658203 197.44939453 31.67658203 198.76939453 30.99658203 200.12939453 C42.87658203 200.12939453 54.75658203 200.12939453 66.99658203 200.12939453 C65.01658203 196.49939453 63.03658203 192.86939453 60.99658203 189.12939453 C54.67324125 176.11436302 53.67583955 164.33115871 53.99658203 150.12939453 C50.69658203 150.12939453 47.39658203 150.12939453 43.99658203 150.12939453 Z M14.99658203 217.12939453 C14.99658203 219.76939453 14.99658203 222.40939453 14.99658203 225.12939453 C37.43658203 225.12939453 59.87658203 225.12939453 82.99658203 225.12939453 C82.99658203 222.48939453 82.99658203 219.84939453 82.99658203 217.12939453 C60.55658203 217.12939453 38.11658203 217.12939453 14.99658203 217.12939453 Z " transform="translate(68.00341796875,6.87060546875)" style="fill: #C0C0C0;"/></svg>