<?xml version="1.0" encoding="UTF-8" standalone="no"?>
<!-- Generator: visioncortex VTracer -->

<svg
   id="svg"
   version="1.1"
   style="display: block;"
   viewBox="0 0 226 257"
   sodipodi:docname="cup3.svg"
   inkscape:version="1.4.2 (ebf0e940, 2025-05-08)"
   xmlns:inkscape="http://www.inkscape.org/namespaces/inkscape"
   xmlns:sodipodi="http://sodipodi.sourceforge.net/DTD/sodipodi-0.dtd"
   xmlns="http://www.w3.org/2000/svg"
   xmlns:svg="http://www.w3.org/2000/svg">
  <defs
     id="defs1" />
  <sodipodi:namedview
     id="namedview1"
     pagecolor="#ffffff"
     bordercolor="#000000"
     borderopacity="0.25"
     inkscape:showpageshadow="2"
     inkscape:pageopacity="0.0"
     inkscape:pagecheckerboard="0"
     inkscape:deskcolor="#d1d1d1"
     showgrid="false"
     inkscape:zoom="2.0340521"
     inkscape:cx="104.96289"
     inkscape:cy="124.62807"
     inkscape:window-width="1472"
     inkscape:window-height="802"
     inkscape:window-x="0"
     inkscape:window-y="38"
     inkscape:window-maximized="1"
     inkscape:current-layer="svg" />
  <path
     d="m 0,0 2.863327,-0.01991272 c 3.1371112,-0.01976183 6.2741744,-0.0314031 9.411331,-0.04136658 l 3.244303,-0.01235008 c 5.668482,-0.02087478 11.33694,-0.03516942 17.005453,-0.04453468 5.853302,-0.0110568 11.706223,-0.0454445 17.55939,-0.0851717 4.501352,-0.0261591 9.002614,-0.0345196 13.504035,-0.0381098 2.157333,-0.004869 4.314662,-0.0164924 6.47192,-0.035038 3.023355,-0.0243719 6.045724,-0.0234295 9.069147,-0.0164852 l 2.691101,-0.0388184 C 96.402432,0.0623813 100.80794,6.519638 94.149658,19.430908 c -1.349912,2.938045 -1.862822,5.550228 -2.261719,8.746094 l 3.070313,-1.058594 c 1.35148,-0.459878 2.703047,-0.9195 4.054687,-1.378906 l 2.015621,-0.697266 c 10.24783,-3.466176 21.23314,-4.589971 31.21875,0.28711 6.88804,4.172116 11.19164,9.575384 13.77735,17.199218 3.53892,14.956363 -0.15209,30.851107 -7.93604,43.836426 -7.61112,12.02398 -18.00108,20.44343 -31.20068,25.81201 -1.66294,0.35147 -3.32936,0.68718 -5,1 l -0.47388,1.82056 c -1.849321,6.65821 -4.4569,12.53567 -7.713621,18.61694 l -1.473144,2.77954 c -5.1009,11.42306 -12.571382,21.71914 -23.214356,28.47046 -3.890432,2.64627 -3.890432,2.64627 -5.753906,6.74219 0.219123,3.01405 0.819944,5.65588 1.628906,8.57031 0.335142,1.31074 0.668375,2.62196 1,3.9336 0.679826,2.64187 1.163993,5.25599 1.919157,7.8789 0.679176,4.1515 0.357842,1.82183 1.080843,6.1875 l 3.875,-0.0625 c 3.440835,0.0217 6.876503,0.0623 10.3125,0.25 l 2.355469,0.10547 c 3.82986,1.10207 6.402887,2.276 8.457031,5.70703 0.743712,4.32024 0.779189,8.54319 0.672364,12.91992 -0.04725,2.07515 -0.04111,4.14516 -0.02783,6.22071 -0.12119,11.23763 -0.12119,11.23763 -4.644532,15.85937 -3.367747,1.68388 -7.180118,1.14718 -10.884277,1.14527 l -2.789261,0.0102 c -3.054146,0.01 -6.108238,0.0115 -9.162399,0.0125 -2.117483,0.003 -4.234965,0.007 -6.352448,0.0101 -4.44372,0.006 -8.887421,0.008 -13.331146,0.007 -5.698778,-10e-5 -11.397433,0.0136 -17.096182,0.0308 -4.375127,0.0111 -8.750224,0.0131 -13.125364,0.0126 -2.101178,0.001 -4.202356,0.006 -6.30352,0.0133 -2.9375346,0.01 -5.8747975,0.007 -8.8123361,8.9e-4 l -2.63877873,0.017 -2.43016057,-0.0127 -2.1038722,0.002 c -2.3865407,-0.30147 -3.9340894,-0.97294 -5.9702554,-2.24889 -3.176627,-4.76494 -2.37191,-10.19755 -2.370605,-15.76904 -0.0044,-2.09214 -0.04067,-4.18216 -0.07861,-6.27393 -0.0059,-1.33723 -0.0098,-2.67447 -0.01172,-4.01172 l -0.0249,-3.67138 c 0.575526,-3.8783 1.762803,-5.50903 4.4858394,-8.27393 2.4005982,-1.2003 3.8936065,-1.1146 6.5703126,-1.09765 l 2.7148437,0.01 2.8398438,0.0254 2.8632812,0.0137 c 2.3373026,0.0118 4.6744793,0.0283 7.0117183,0.0488 l 0.181397,-1.67871 c 0.420657,-3.84577 0.855376,-7.68787 1.35376,-11.52441 l 0.263672,-2.03125 c 0.177856,-1.35962 0.357586,-2.71899 0.539062,-4.07813 0.24396,-1.89298 0.454216,-3.79022 0.662109,-5.6875 l 0.410157,-2.64844 c -0.644198,-3.69339 -3.283798,-5.44123 -6.035157,-7.72656 -1.1155787,-0.97785 -2.228887,-1.9583 -3.3398433,-2.9414 l -1.612793,-1.41456 c -10.5775861,-9.4374 -21.6495267,-26.88686 -24.0473637,-40.92919 -1.786933,-4.34042 -3.672653,-4.99651 -7.850341,-6.79883 l -2.587159,-1.04102 c -7.078702,-3.10306 -13.326012,-6.05531 -18.9375,-11.499998 l -2.058593,-1.941406 C -61.903827,85.191905 -66.598473,69.566908 -66.540771,53.107422 c 0.225041,-7.926371 3.04764,-26.843706 24.52246,-30.449951 7.493769,-0.644533 13.708877,-0.197084 20.972657,1.75 3.646539,0.956548 7.187699,1.402286 10.933593,1.769531 -0.993925,-3.478738 -1.989035,-5.984843 -4.125,-8.9375 C -14.370932,17.020846 -24.666931,0.07384564 0,0 Z m 6.8879395,17.177002 1,7 c 7.8670525,0.0232 15.7340975,0.04095 23.6011765,0.05181 3.653217,0.0052 7.306411,0.01228 10.959614,0.02363 3.527243,0.01089 7.054463,0.01685 10.581721,0.01944 1.996871,0.0027 3.993733,0.01054 5.990591,0.01842 l 3.699661,2.29e-4 3.250168,0.0067 c 2.750525,-0.113388 5.240766,-0.496403 7.917068,-1.120254 l 1,-6 z m -53.0000005,26 c -4.406157,7.900696 -3.218312,14.557125 -0.976562,22.9375 3.488703,10.940573 9.301258,18.922403 18.976562,25.0625 h 2 l -0.215332,-1.765625 c -1.965001,-16.691034 -1.932591,-31.035576 3.215332,-47.234375 -3.616922,-2.263959 -6.725802,-2.299015 -10.9375,-2.3125 l -3.652343,-0.05078 c -3.674602,0.391452 -5.509631,1.114852 -8.410157,3.36328 z m 41.3125005,2.5625 c -0.8112973,1.117549 -1.5805797,2.266427 -2.3125,3.4375 l -1.1953126,1.875 C -17.342647,68.743447 -9.0693143,93.02011 -3.4362793,110.49341 1.2091964,124.16757 7.6456025,137.75298 17.887939,148.177 l 3,3 c 1.435703,0.81567 2.873635,1.62742 4.3125,2.4375 l 2.425782,1.3711 c 7.025721,3.70094 16.885366,3.51625 24.410156,1.23828 18.447615,-9.19738 27.940941,-31.03554 34.160156,-49.51563 5.467622,-17.234958 10.03975,-37.014523 3.691406,-54.531248 -2.415105,-4.546469 -4.689505,-8.126337 -9,-11 -3.994145,-1.090823 -7.848294,-1.138213 -11.974121,-1.161133 l -2.066635,-0.01505 c -2.244237,-0.01454 -4.488404,-0.02141 -6.732681,-0.02695 l -4.703766,-0.01727 c -3.283318,-0.01049 -6.566612,-0.01635 -9.849945,-0.01984 -4.195223,-0.0055 -8.390121,-0.02952 -12.585241,-0.05797 -3.237756,-0.01868 -6.475435,-0.02383 -9.71324,-0.02536 -1.546077,-0.003 -3.092152,-0.01101 -4.638176,-0.02418 -2.168009,-0.01717 -4.335234,-0.01516 -6.503284,-0.0087 l -3.72934,-0.01105 c -5.3811891,0.564438 -9.20992299,2.134015 -13.1910705,5.929993 z m 109.6875005,-3.5625 0.83984,3.113281 c 0.36635,1.39962 0.73221,2.799367 1.09766,4.199219 l 0.55273,2.033203 c 2.55168,9.881943 2.66762,19.23871 1.57227,29.341797 l -0.30273,3.029297 c -0.24405,2.428835 -0.49739,4.856292 -0.75977,7.283203 10.11838,-4.875021 15.51826,-13.534457 19.375,-23.875 2.43604,-7.096283 4.09339,-14.233774 1.375,-21.4375 -2.58822,-3.97476 -4.3223,-5.323577 -8.9375,-6.5 -5.14168,-0.25287 -10.16751,0.490005 -14.8125,2.8125 z M 33.887939,174.177 c -0.481738,2.66623 -0.960446,5.33294 -1.4375,8 l -0.408203,2.25391 -0.40039,2.24609 -0.364991,2.03125 c -0.547794,3.47728 -0.952293,6.97577 -1.388916,10.46875 h 21 l -2,-10 -3,-15 z m -29.9999995,41 -1,8 c 2.9521656,1.47608 5.5426343,1.07338 8.8364255,1.02173 l 2.128937,-0.0291 c 2.326751,-0.033 4.653316,-0.0734 6.97995,-0.11371 1.611393,-0.0243 3.222792,-0.0481 4.834198,-0.0716 4.244841,-0.0629 8.48956,-0.13194 12.734283,-0.20226 4.329981,-0.0706 8.660049,-0.13548 12.990113,-0.2008 8.498793,-0.12907 16.997467,-0.26465 25.496093,-0.4043 0.799532,-3.28696 1.09659,-4.71023 0,-8 z"
     transform="translate(72.112061,7.822998)"
     style="fill:#4a606c"
     id="path1"
     sodipodi:nodetypes="ccccccccccccccccccccccccccccccccccccccccccccccccccccccccccccccccccccccccccccccccccccccccccccccccccccccccccccccccccccccccccccccccccccccccccccccccccccccccccc" />
</svg>
