<?xml version="1.0" encoding="UTF-8"?>
<!-- Generator: visioncortex VTracer -->
<svg id="svg" version="1.1" xmlns="http://www.w3.org/2000/svg" style="display: block;" viewBox="0 0 241 256"><path d="M0 0 C1.14826263 -0.0071553 2.29652527 -0.01431061 3.47958374 -0.02168274 C5.37859184 -0.02571609 5.37859184 -0.02571609 7.31596375 -0.02983093 C8.65788449 -0.03609494 9.99980349 -0.04274168 11.34172058 -0.04974365 C14.99264184 -0.06715902 18.64354999 -0.07770685 22.2945025 -0.08594918 C24.57503185 -0.09109818 26.85555713 -0.09717396 29.1360836 -0.10346031 C36.27000225 -0.12251386 43.40391052 -0.13674467 50.53784972 -0.14507228 C58.77526468 -0.15484651 67.01241106 -0.18116994 75.24973136 -0.22157317 C81.61497995 -0.25172366 87.98015151 -0.26654012 94.34547013 -0.26985329 C98.14800976 -0.27220501 101.95026251 -0.28118068 105.7527256 -0.30631447 C109.33066953 -0.32958191 112.90813744 -0.33383416 116.48613739 -0.32355309 C118.42346772 -0.32282105 120.36077381 -0.34192172 122.29800415 -0.36161804 C123.45472626 -0.35467422 124.61144836 -0.34773041 125.80322266 -0.34057617 C127.30784042 -0.3441587 127.30784042 -0.3441587 128.8428545 -0.34781361 C132.38718391 0.29032402 134.04336301 1.64394588 136.59208679 4.14717102 C139.44002668 11.08128552 138.14795881 16.96622323 136.59208679 24.14717102 C137.37970398 23.85842102 138.16732117 23.56967102 138.97880554 23.27217102 C148.04875746 20.1808738 157.77856166 17.76818346 167.02958679 21.58467102 C171.96652264 24.50290217 175.50384985 29.74395731 177.23661804 35.16279602 C180.22723878 51.85768981 173.52473908 71.0934688 164.33427429 84.72138977 C154.59324718 98.28456878 141.14552494 106.59143899 125.46708679 111.89717102 C120.47694721 114.02365096 119.14141185 118.31002948 117.04521179 123.04951477 C111.19601457 135.51836799 99.32297673 146.17472181 86.59208679 151.14717102 C87.07069564 159.07004828 88.41664386 166.47163952 90.40458679 174.14717102 C90.65273132 175.15006165 90.90087585 176.15295227 91.15653992 177.18623352 C92.88920736 184.01109154 95.06571132 190.57616946 97.59208679 197.14717102 C98.90564148 197.23353821 100.21919617 197.3199054 101.57255554 197.40888977 C103.30832941 197.54962819 105.04400187 197.69162135 106.77958679 197.83467102 C108.0760614 197.91491516 108.0760614 197.91491516 109.39872742 197.9967804 C113.70859898 198.37657751 116.06932265 198.76898698 119.64286804 201.35420227 C123.6276849 207.06390979 122.77491927 213.9837686 122.77958679 220.70967102 C122.79183289 221.64230774 122.80407898 222.57494446 122.81669617 223.5358429 C122.8293327 229.44552965 122.83432253 233.73300268 118.64372253 238.24493408 C114.26603513 240.97376524 110.52932307 240.71518777 105.46513367 240.68061829 C104.44831009 240.68923386 103.43148651 240.69784943 102.3838501 240.70672607 C99.02591938 240.72941127 95.6688214 240.72264255 92.31083679 240.71357727 C89.97583264 240.71881145 87.6408306 240.72508717 85.30583191 240.73236084 C80.41335598 240.74276962 75.52117083 240.73819608 70.62870789 240.72358704 C64.35699361 240.70639311 58.08619493 240.72990055 51.81458282 240.76507664 C46.99329042 240.78702851 42.17221787 240.78561452 37.35089111 240.77731133 C35.03841141 240.77649071 32.72591574 240.783375 30.41348267 240.79808235 C27.18142764 240.81548789 23.95102809 240.80101777 20.71903992 240.77827454 C19.28504601 240.79581284 19.28504601 240.79581284 17.82208252 240.81370544 C13.26207046 240.74836741 11.23888408 240.64261586 7.52165222 237.79522705 C3.52300502 232.30764852 4.37161123 226.36326291 4.34208679 219.83467102 C4.32146179 218.7060968 4.30083679 217.57752258 4.27958679 216.41474915 C4.2306322 206.01801664 4.2306322 206.01801664 7.59208679 201.14717102 C11.42772624 197.31153157 16.66507929 197.86364404 21.84208679 197.58467102 C22.58716492 197.54148743 23.33224304 197.49830383 24.09989929 197.45381165 C25.93043579 197.34820377 27.76123855 197.24722901 29.59208679 197.14717102 C34.20891176 181.89857677 38.39893919 166.95777145 40.59208679 151.14717102 C39.64849304 150.71017883 39.64849304 150.71017883 38.68583679 150.26435852 C23.11809865 142.80872489 13.10569228 131.16640403 6.59208679 115.14717102 C6.59208679 114.48717102 6.59208679 113.82717102 6.59208679 113.14717102 C5.96044617 113.01181946 5.32880554 112.8764679 4.67802429 112.73701477 C-7.3138305 109.85136671 -18.20166938 104.37212917 -27.40791321 96.14717102 C-28.09369446 95.54260071 -28.77947571 94.9380304 -29.48603821 94.31513977 C-43.00694507 81.6457404 -49.55418637 64.23450571 -51.40791321 46.14717102 C-51.47553882 42.66219798 -51.20124659 39.53743166 -50.40791321 36.14717102 C-50.16041321 35.07402649 -50.16041321 35.07402649 -49.90791321 33.97920227 C-48.25515097 28.47343806 -45.2859239 25.13125711 -40.40791321 22.14717102 C-32.53198757 18.16701574 -24.7781326 19.02486421 -16.40791321 21.14717102 C-14.37914812 22.08744343 -12.36844455 23.07184928 -10.40791321 24.14717102 C-10.90291321 22.66217102 -10.90291321 22.66217102 -11.40791321 21.14717102 C-12.42525679 7.72157132 -12.42525679 7.72157132 -9.53291321 3.33467102 C-6.30813531 0.01504671 -4.51036007 0.01923748 0 0 Z M6.59208679 16.14717102 C7.07227354 25.37475586 7.72074127 34.45733442 9.22880554 43.58467102 C9.39072891 44.5927179 9.55265228 45.60076477 9.71948242 46.63935852 C10.06104198 48.75050992 10.40653363 50.86102882 10.75590515 52.97090149 C11.27383841 56.11230555 11.77259702 59.25633749 12.26982117 62.40107727 C13.99484539 73.08324087 16.03149275 83.63736097 18.61552429 94.14717102 C18.96999886 95.6060675 18.96999886 95.6060675 19.33163452 97.09443665 C22.8756383 110.98578796 29.00186499 124.42100919 41.34208679 132.45967102 C52.17257846 138.46388619 64.41049854 140.04273563 76.44364929 136.89326477 C88.55539878 132.6871845 96.89129828 123.38740497 102.59208679 112.14717102 C110.91025761 93.02749197 113.35339645 71.60976496 116.34208679 51.14717102 C116.44908905 50.42530609 116.55609131 49.70344116 116.66633606 48.95970154 C117.8543943 40.87097331 118.78536707 32.8089945 119.29521179 24.64717102 C119.34272583 23.91039124 119.39023987 23.17361145 119.43919373 22.414505 C119.53414444 20.66055572 119.56917301 18.90353906 119.59208679 17.14717102 C118.60616549 15.94151281 118.60616549 15.94151281 116.71989346 16.02412319 C115.48238637 16.02550588 115.48238637 16.02550588 114.21987915 16.0269165 C113.27611923 16.02554184 112.33235931 16.02416718 111.36000061 16.02275085 C110.31631317 16.02634613 109.27262573 16.02994141 108.1973114 16.03364563 C107.10476547 16.0334996 106.01221954 16.03335358 104.88656616 16.03320312 C101.25583446 16.0339028 97.62515334 16.04169773 93.99443054 16.04951477 C91.48479236 16.05137876 88.97515381 16.05280275 86.46551514 16.05380249 C80.52274086 16.05723754 74.57998295 16.06512829 68.6372171 16.07515198 C61.21006754 16.08740849 53.78291575 16.0927931 46.35575867 16.0983429 C33.10119206 16.10908291 19.84664058 16.1259702 6.59208679 16.14717102 Z M139.59208679 42.14717102 C138.55954773 42.7324054 137.52700867 43.31763977 136.46318054 43.92060852 C131.51877758 48.16621725 131.66016538 55.51099025 130.84208679 61.58467102 C130.64743835 62.87566711 130.45278992 64.16666321 130.25224304 65.4967804 C129.67264373 69.37698386 129.129072 73.2608626 128.59208679 77.14717102 C128.21465384 79.80512614 127.83285751 82.46243587 127.45146179 85.11982727 C127.1648672 87.12892242 126.87835487 89.13802932 126.59208679 91.14717102 C136.2348131 89.40282835 143.74918627 82.35499181 149.43974304 74.64326477 C155.75190626 65.22192562 161.31695018 53.26564094 160.27958679 41.64717102 C159.68652535 39.17434597 159.68652535 39.17434597 158.59208679 37.14717102 C150.99644152 36.53461898 146.00067612 38.02081382 139.59208679 42.14717102 Z M-31.40791321 38.14717102 C-34.37814787 42.60252301 -33.75972474 46.36741855 -32.74385071 51.50654602 C-28.39949396 66.83541456 -21.26639325 79.16728941 -7.64619446 87.99092102 C-4.98266831 89.36684378 -2.25591194 90.22336435 0.59208679 91.14717102 C-0.82695012 81.80378294 -2.29486382 72.46966918 -3.84541321 63.14717102 C-4.04972961 61.86455383 -4.25404602 60.58193665 -4.46455383 59.26045227 C-4.77489563 57.41000305 -4.77489563 57.41000305 -5.09150696 55.52217102 C-5.27253967 54.4161554 -5.45357239 53.31013977 -5.64009094 52.17060852 C-6.81371723 47.5492451 -8.46174924 44.88307633 -12.22041321 41.95967102 C-18.299158 38.50312986 -24.41346764 36.97723678 -31.40791321 38.14717102 Z M57.59208679 154.14717102 C55.77211958 155.96713824 56.10828448 158.93750438 55.84208679 161.39717102 C54.93701248 169.02282323 53.22718023 176.3828697 51.35673523 183.82392883 C51.14436218 184.67309875 50.93198914 185.52226868 50.71318054 186.39717102 C50.42592102 187.5186554 50.42592102 187.5186554 50.13285828 188.66279602 C49.45163661 191.79241757 49.04504582 194.97645783 48.59208679 198.14717102 C58.49208679 198.14717102 68.39208679 198.14717102 78.59208679 198.14717102 C77.84555052 192.92141713 76.84975332 188.36158996 75.27958679 183.39717102 C72.43130298 174.1034848 70.46480091 164.67813505 68.59208679 155.14717102 C66.78027274 154.95315469 64.96760147 154.76712727 63.15458679 154.58467102 C62.14525085 154.48025696 61.13591492 154.3758429 60.09599304 154.26826477 C59.26970398 154.22830383 58.44341492 154.1883429 57.59208679 154.14717102 Z M22.59208679 215.14717102 C21.23769012 217.85596437 21.52707228 220.1565037 21.59208679 223.14717102 C25.77323829 224.15962435 29.81145681 224.28915056 34.08866882 224.27656555 C34.82585144 224.27831787 35.56303406 224.28007019 36.32255554 224.28187561 C38.74836105 224.28626098 41.1740931 224.28336844 43.59989929 224.27998352 C45.28950515 224.28065737 46.97911091 224.28162807 48.66871643 224.28288269 C52.20421779 224.28435505 55.73969385 224.2822194 59.27519226 224.27754211 C63.80923024 224.27183636 68.34320913 224.2751321 72.87724495 224.28111458 C76.36360623 224.2847252 79.84995346 224.28357944 83.33631516 224.28098679 C85.00848777 224.28031936 86.68066166 224.28113952 88.35283279 224.28346634 C90.68668764 224.286002 93.02044617 224.28213972 95.35429382 224.27656555 C96.0463089 224.27858978 96.73832397 224.28061401 97.4513092 224.28269958 C100.45090024 224.26940815 102.71999859 224.10453376 105.59208679 223.14717102 C105.80179238 219.00623404 105.80179238 219.00623404 104.59208679 215.14717102 C77.53208679 215.14717102 50.47208679 215.14717102 22.59208679 215.14717102 Z " transform="translate(56.40791320800781,7.8528289794921875)" style="fill: #CD7F32;"/></svg>